<?xml version="1.0" encoding="UTF-8"?>
<svg xmlns="http://www.w3.org/2000/svg" xmlns:xlink="http://www.w3.org/1999/xlink" width="192px" height="192px" viewBox="0 0 192 192" version="1.1">
<g id="surface1">
<path style=" stroke:none;fill-rule:nonzero;fill:#2ac5df;fill-opacity:1;" d="M 27.785156 84.882812 C 32.269531 69.160156 45.347656 57.273438 61.59375 54.140625 L 70.183594 52.484375 C 87.234375 49.195312 104.765625 49.195312 121.816406 52.484375 L 130.40625 54.140625 C 146.652344 57.273438 159.730469 69.160156 164.214844 84.882812 L 164.960938 87.488281 C 169.03125 101.757812 169.003906 116.957031 164.933594 131.222656 C 160.03125 148.40625 145.703125 161.527344 127.941406 164.949219 C 106.847656 169.015625 85.152344 169.015625 64.058594 164.949219 C 46.296875 161.527344 31.972656 148.40625 27.066406 131.222656 C 22.996094 116.957031 22.96875 101.757812 27.039062 87.488281 Z M 27.785156 84.882812 "/>
<path style=" stroke:none;fill-rule:nonzero;fill:#05102e;fill-opacity:1;" d="M 86.960938 25.171875 L 85.425781 19.371094 Z M 105.039062 25.171875 L 103.507812 30.972656 Z M 27.066406 131.222656 L 32.835938 129.578125 Z M 27.039062 87.488281 L 32.808594 89.136719 Z M 164.960938 87.488281 L 170.730469 85.84375 Z M 164.933594 131.222656 L 170.703125 132.871094 Z M 127.941406 164.949219 L 126.808594 159.058594 Z M 64.058594 164.949219 L 65.191406 159.058594 Z M 70.183594 52.484375 L 71.320312 58.375 Z M 121.816406 52.484375 L 122.953125 46.589844 Z M 130.40625 54.140625 L 129.269531 60.03125 Z M 164.214844 84.882812 L 158.445312 86.527344 Z M 61.59375 54.140625 L 60.460938 48.246094 Z M 27.785156 84.882812 L 22.015625 83.234375 Z M 88.492188 30.972656 C 93.410156 29.675781 98.589844 29.675781 103.507812 30.972656 L 106.574219 19.371094 C 99.644531 17.542969 92.355469 17.542969 85.425781 19.371094 Z M 135.414062 56.503906 C 135.414062 39.050781 123.535156 23.855469 106.574219 19.371094 L 103.507812 30.972656 C 115.300781 34.089844 123.414062 44.597656 123.414062 56.503906 Z M 68.582031 56.503906 C 68.582031 44.597656 76.699219 34.089844 88.492188 30.972656 L 85.425781 19.371094 C 68.464844 23.855469 56.582031 39.050781 56.582031 56.503906 Z M 62.730469 60.03125 L 71.320312 58.375 L 69.046875 46.589844 L 60.460938 48.246094 Z M 120.679688 58.375 L 129.269531 60.03125 L 131.539062 48.246094 L 122.953125 46.589844 Z M 158.445312 86.527344 L 159.191406 89.136719 L 170.730469 85.84375 L 169.984375 83.234375 Z M 32.808594 89.136719 L 33.554688 86.527344 L 22.015625 83.234375 L 21.269531 85.84375 Z M 32.835938 129.578125 C 29.070312 116.378906 29.046875 102.320312 32.808594 89.136719 L 21.269531 85.84375 C 16.890625 101.195312 16.921875 117.535156 21.296875 132.871094 Z M 159.191406 89.136719 C 162.953125 102.320312 162.929688 116.378906 159.164062 129.578125 L 170.703125 132.871094 C 175.078125 117.535156 175.109375 101.195312 170.730469 85.84375 Z M 126.808594 159.058594 C 106.460938 162.980469 85.539062 162.980469 65.191406 159.058594 L 62.921875 170.839844 C 84.765625 175.054688 107.234375 175.054688 129.078125 170.839844 Z M 71.320312 58.375 C 87.621094 55.230469 104.382812 55.230469 120.679688 58.375 L 122.953125 46.589844 C 105.152344 43.160156 86.847656 43.160156 69.046875 46.589844 Z M 65.191406 159.058594 C 49.640625 156.058594 37.113281 144.566406 32.835938 129.578125 L 21.296875 132.871094 C 26.828125 152.242188 42.957031 166.992188 62.921875 170.839844 Z M 129.078125 170.839844 C 149.042969 166.992188 165.171875 152.242188 170.703125 132.871094 L 159.164062 129.578125 C 154.886719 144.566406 142.359375 156.058594 126.808594 159.058594 Z M 129.269531 60.03125 C 143.332031 62.742188 154.589844 73.015625 158.445312 86.527344 L 169.984375 83.234375 C 164.871094 65.304688 149.976562 51.800781 131.539062 48.246094 Z M 60.460938 48.246094 C 42.023438 51.800781 27.128906 65.304688 22.015625 83.234375 L 33.554688 86.527344 C 37.410156 73.015625 48.667969 62.742188 62.730469 60.03125 Z M 27.085938 94.332031 C 71.519531 110.769531 120.480469 110.769531 164.914062 94.332031 L 160.75 83.078125 C 119.003906 98.519531 72.996094 98.519531 31.25 83.078125 Z M 27.085938 94.332031 "/>
<path style="fill:none;stroke-width:1.5;stroke-linecap:round;stroke-linejoin:miter;stroke:#05102e;stroke-opacity:1;stroke-miterlimit:4;" d="M 8 10.5 L 8 14 " transform="matrix(8,0,0,8,0,0)"/>
<path style="fill:none;stroke-width:1.5;stroke-linecap:round;stroke-linejoin:miter;stroke:#05102e;stroke-opacity:1;stroke-miterlimit:4;" d="M 16 10.5 L 16 14 " transform="matrix(8,0,0,8,0,0)"/>
</g>
</svg>
