<?xml version="1.0" standalone="no"?>
<!DOCTYPE svg PUBLIC "-//W3C//DTD SVG 20010904//EN"
 "http://www.w3.org/TR/2001/REC-SVG-20010904/DTD/svg10.dtd">
<svg version="1.0" xmlns="http://www.w3.org/2000/svg"
 width="150.000000pt" height="150.000000pt" viewBox="0 0 150.000000 150.000000"
 preserveAspectRatio="xMidYMid meet">
<metadata>
Created by potrace 1.14, written by Peter Selinger 2001-2017
</metadata>
<g transform="translate(0.000000,150.000000) scale(0.100000,-0.100000)"
fill="#000000" stroke="none">
<path d="M7 1373 c-4 -3 -7 -198 -7 -432 l0 -426 85 -44 c47 -24 89 -41 93
-37 4 4 7 151 8 327 0 175 3 321 6 324 3 3 67 -24 141 -62 l136 -67 43 24 c84
46 119 71 113 80 -3 5 -47 30 -98 56 -50 25 -128 65 -172 89 -203 107 -333
175 -337 175 -3 0 -8 -3 -11 -7z"/>
<path d="M1260 1259 c-118 -61 -375 -192 -570 -291 -195 -99 -362 -188 -370
-197 -12 -14 -15 -50 -13 -202 1 -101 2 -192 2 -201 1 -28 38 -58 71 -58 19 0
134 52 308 139 152 77 284 141 292 143 12 2 15 -11 16 -67 1 -38 -1 -76 -6
-84 -4 -7 -96 -59 -206 -116 -109 -56 -200 -107 -202 -113 -2 -6 36 -31 83
-54 l87 -43 215 110 c118 61 217 114 220 118 6 10 4 539 -2 545 -2 3 -153 -70
-335 -162 -182 -92 -335 -164 -340 -161 -12 7 -13 95 -2 111 10 16 785 403
794 398 5 -3 8 -153 8 -335 0 -257 3 -329 13 -329 6 0 48 20 92 43 l80 43 3
437 c2 346 0 437 -10 437 -7 -1 -110 -50 -228 -111z"/>
</g>
</svg>
