<?xml version="1.0" encoding="UTF-8"?>
<svg xmlns="http://www.w3.org/2000/svg" xmlns:xlink="http://www.w3.org/1999/xlink" width="192px" height="192px" viewBox="0 0 192 192" version="1.1">
<defs>
<filter id="alpha" filterUnits="objectBoundingBox" x="0%" y="0%" width="100%" height="100%">
  <feColorMatrix type="matrix" in="SourceGraphic" values="0 0 0 0 1 0 0 0 0 1 0 0 0 0 1 0 0 0 1 0"/>
</filter>
<mask id="mask0">
  <g filter="url(#alpha)">
<rect x="0" y="0" width="192" height="192" style="fill:#05102e;fill-opacity:1;stroke:none;"/>
  </g>
</mask>
<clipPath id="clip1">
  <rect x="0" y="0" width="192" height="192"/>
</clipPath>
<g id="surface5" clip-path="url(#clip1)">
<path style=" stroke:none;fill-rule:nonzero;fill:#05102e;fill-opacity:1;" d="M 176 96 C 176 140.183594 140.183594 176 96 176 C 51.816406 176 16 140.183594 16 96 C 16 51.816406 51.816406 16 96 16 C 140.183594 16 176 51.816406 176 96 Z M 176 96 "/>
</g>
</defs>
<g id="surface1">
<use xlink:href="#surface5" mask="url(#mask0)"/>
<path style=" stroke:none;fill-rule:nonzero;fill:#2ac5df;fill-opacity:1;" d="M 83.300781 67.984375 L 84.613281 65.632812 C 89.679688 56.542969 92.210938 52 96 52 C 99.789062 52 102.320312 56.542969 107.386719 65.632812 L 108.699219 67.984375 C 110.136719 70.566406 110.859375 71.859375 111.980469 72.710938 C 113.101562 73.5625 114.5 73.878906 117.296875 74.511719 L 119.839844 75.089844 C 129.679688 77.3125 134.601562 78.425781 135.769531 82.191406 C 136.941406 85.953125 133.585938 89.875 126.878906 97.71875 L 125.144531 99.75 C 123.238281 101.976562 122.285156 103.09375 121.855469 104.472656 C 121.429688 105.847656 121.570312 107.335938 121.859375 110.308594 L 122.121094 113.019531 C 123.136719 123.480469 123.644531 128.714844 120.578125 131.039062 C 117.515625 133.367188 112.910156 131.246094 103.699219 127.003906 L 101.3125 125.90625 C 98.695312 124.703125 97.386719 124.097656 96 124.097656 C 94.613281 124.097656 93.304688 124.703125 90.6875 125.90625 L 88.300781 127.003906 C 79.089844 131.246094 74.484375 133.367188 71.421875 131.039062 C 68.355469 128.714844 68.863281 123.480469 69.878906 113.019531 L 70.140625 110.308594 C 70.429688 107.335938 70.570312 105.847656 70.144531 104.472656 C 69.714844 103.09375 68.761719 101.976562 66.855469 99.75 L 65.121094 97.71875 C 58.414062 89.875 55.058594 85.953125 56.230469 82.191406 C 57.398438 78.425781 62.320312 77.3125 72.15625 75.089844 L 74.703125 74.511719 C 77.5 73.878906 78.898438 73.5625 80.019531 72.710938 C 81.140625 71.859375 81.863281 70.566406 83.300781 67.984375 Z M 83.300781 67.984375 "/>
</g>
</svg>
