<?xml version="1.0" encoding="UTF-8"?>
<svg xmlns="http://www.w3.org/2000/svg" xmlns:xlink="http://www.w3.org/1999/xlink" width="192px" height="192px" viewBox="0 0 192 192" version="1.1">
<defs>
<filter id="alpha" filterUnits="objectBoundingBox" x="0%" y="0%" width="100%" height="100%">
  <feColorMatrix type="matrix" in="SourceGraphic" values="0 0 0 0 1 0 0 0 0 1 0 0 0 0 1 0 0 0 1 0"/>
</filter>
<mask id="mask0">
  <g filter="url(#alpha)">
<rect x="0" y="0" width="192" height="192" style="fill:#05102e;fill-opacity:1;stroke:none;"/>
  </g>
</mask>
<clipPath id="clip1">
  <rect x="0" y="0" width="192" height="192"/>
</clipPath>
<g id="surface5" clip-path="url(#clip1)">
<path style=" stroke:none;fill-rule:nonzero;fill:#05102e;fill-opacity:1;" d="M 37.828125 129.09375 C 25.464844 116.730469 19.28125 110.546875 16.980469 102.527344 C 14.679688 94.507812 16.648438 85.988281 20.578125 68.949219 L 22.847656 59.125 C 26.152344 44.789062 27.808594 37.625 32.714844 32.714844 C 37.625 27.808594 44.789062 26.152344 59.125 22.847656 L 68.949219 20.578125 C 85.988281 16.648438 94.507812 14.679688 102.527344 16.980469 C 110.546875 19.28125 116.730469 25.464844 129.09375 37.828125 L 143.730469 52.464844 C 165.242188 73.976562 176 84.734375 176 98.097656 C 176 111.464844 165.242188 122.21875 143.730469 143.730469 C 122.21875 165.242188 111.464844 176 98.097656 176 C 84.734375 176 73.976562 165.242188 52.464844 143.730469 Z M 37.828125 129.09375 "/>
</g>
</defs>
<g id="surface1">
<use xlink:href="#surface5" mask="url(#mask0)"/>
<path style=" stroke:none;fill-rule:nonzero;fill:#2ac5df;fill-opacity:1;" d="M 80.988281 58.171875 C 87.289062 64.472656 87.289062 74.6875 80.988281 80.988281 C 74.6875 87.289062 64.472656 87.289062 58.171875 80.988281 C 51.871094 74.6875 51.871094 64.472656 58.171875 58.171875 C 64.472656 51.871094 74.6875 51.871094 80.988281 58.171875 Z M 80.988281 58.171875 "/>
<path style=" stroke:none;fill-rule:nonzero;fill:#2ac5df;fill-opacity:1;" d="M 152.410156 96.410156 L 96.578125 152.246094 C 94.234375 154.589844 90.433594 154.589844 88.09375 152.246094 C 85.75 149.902344 85.75 146.105469 88.09375 143.761719 L 143.925781 87.925781 C 146.265625 85.582031 150.066406 85.582031 152.410156 87.925781 C 154.753906 90.269531 154.753906 94.070312 152.410156 96.410156 Z M 152.410156 96.410156 "/>
</g>
</svg>
