<?xml version="1.0" encoding="UTF-8"?>
<svg xmlns="http://www.w3.org/2000/svg" xmlns:xlink="http://www.w3.org/1999/xlink" width="50px" height="42px" viewBox="0 0 50 42" version="1.1">
<defs>
<linearGradient id="linear0" gradientUnits="userSpaceOnUse" x1="301.18" y1="419.38" x2="301.18" y2="2.73" gradientTransform="matrix(0.0999094,0,0,0.100148,0.0226525,0)">
<stop offset="0" style="stop-color:rgb(39.215686%,90.196078%,97.254902%);stop-opacity:1;"/>
<stop offset="1" style="stop-color:rgb(7.843137%,72.54902%,83.921569%);stop-opacity:1;"/>
</linearGradient>
<linearGradient id="linear1" gradientUnits="userSpaceOnUse" x1="104.05" y1="315.99" x2="104.05" y2="0" gradientTransform="matrix(0.0999094,0,0,0.100148,0.0226525,0)">
<stop offset="0" style="stop-color:rgb(39.215686%,90.196078%,97.254902%);stop-opacity:1;"/>
<stop offset="1" style="stop-color:rgb(7.843137%,72.54902%,83.921569%);stop-opacity:1;"/>
</linearGradient>
</defs>
<g id="surface1">
<path style=" stroke:none;fill-rule:nonzero;fill:url(#linear0);" d="M 19.699219 38.535156 C 19.308594 38.734375 19.3125 39.292969 19.703125 39.492188 L 24.292969 41.839844 C 24.710938 42.050781 25.203125 42.054688 25.625 41.839844 L 39.140625 34.890625 C 39.5 34.703125 39.726562 34.332031 39.722656 33.925781 L 39.636719 16.9375 C 39.636719 16.535156 39.214844 16.277344 38.859375 16.460938 L 17.449219 27.335938 C 17.089844 27.519531 16.667969 27.257812 16.667969 26.855469 L 16.667969 23.96875 C 16.667969 23.5625 16.894531 23.191406 17.257812 23.007812 L 42.816406 10.097656 C 43.175781 9.917969 43.597656 10.175781 43.597656 10.578125 L 43.597656 31.800781 C 43.597656 32.207031 44.023438 32.464844 44.382812 32.277344 L 49.6875 29.503906 C 49.867188 29.410156 49.976562 29.226562 49.976562 29.023438 L 49.976562 0.8125 C 49.976562 0.410156 49.550781 0.148438 49.195312 0.332031 L 10.835938 19.984375 C 10.476562 20.167969 10.25 20.539062 10.25 20.941406 L 10.25 33.253906 C 10.25 35.125 12.214844 36.339844 13.882812 35.5 L 32.472656 26.152344 C 32.832031 25.972656 33.25 26.234375 33.25 26.632812 L 33.25 30.839844 C 33.25 31.242188 33.027344 31.613281 32.671875 31.796875 Z M 19.699219 38.535156 "/>
<path style=" stroke:none;fill-rule:nonzero;fill:url(#linear1);" d="M 0.0234375 0.539062 L 0.0234375 28.492188 C 0.0234375 28.695312 0.136719 28.882812 0.316406 28.972656 L 5.410156 31.585938 C 5.769531 31.769531 6.195312 31.507812 6.195312 31.105469 L 6.195312 10.203125 C 6.195312 9.78125 6.636719 9.507812 7.015625 9.699219 L 15.082031 13.800781 C 15.398438 13.964844 15.777344 13.957031 16.089844 13.785156 L 20.535156 11.3125 C 20.910156 11.105469 20.90625 10.5625 20.523438 10.363281 L 0.808594 0.0625 C 0.453125 -0.125 0.0234375 0.136719 0.0234375 0.539062 Z M 0.0234375 0.539062 "/>
</g>
</svg>
